<?xml version="1.0" encoding="utf-8" ?>
<svg baseProfile="full" height="1024" version="1.1" width="1024" xmlns="http://www.w3.org/2000/svg" xmlns:ev="http://www.w3.org/2001/xml-events" xmlns:xlink="http://www.w3.org/1999/xlink"><defs /><rect fill="#009ba1" height="1024" width="1024" x="0" y="0" /><polygon fill="white" points="525,879 527,879" /><polygon fill="white" points="479,878 480,878" /><polygon fill="white" points="552,877 553,877" /><polygon fill="white" points="468,877 469,877" /><polygon fill="white" points="561,876 562,876" /><polygon fill="white" points="460,876 463,876" /><polygon fill="white" points="566,875 568,875" /><polygon fill="white" points="580,873 581,873" /><polygon fill="white" points="444,873 445,873" /><polygon fill="white" points="584,872 585,872" /><polygon fill="white" points="437,872 440,872" /><polygon fill="white" points="394,860 395,860" /><polygon fill="white" points="674,841 673,842 672,842 673,842" /><polygon fill="white" points="291,805 292,806" /><polygon fill="white" points="748,792 747,793" /><polygon fill="white" points="773,769 772,770" /><polygon fill="white" points="237,755 238,756" /><polygon fill="white" points="204,712 205,713" /><polygon fill="white" points="856,637 856,638" /><polygon fill="white" points="167,637 167,638" /><polygon fill="white" points="165,631 165,632" /><polygon fill="white" points="164,628 164,629" /><polygon fill="white" points="163,625 163,626" /><polygon fill="white" points="861,622 861,623" /><polygon fill="white" points="865,609 865,610" /><polygon fill="white" points="867,601 867,602" /><polygon fill="white" points="869,593 869,594" /><polygon fill="white" points="152,582 152,583" /><polygon fill="white" points="872,577 872,579" /><polygon fill="white" points="873,572 873,574" /><polygon fill="white" points="149,561 149,563" /><polygon fill="white" points="875,558 875,560" /><polygon fill="white" points="148,555 148,556" /><polygon fill="white" points="876,553 876,554" /><polygon fill="white" points="876,547 876,549" /><polygon fill="white" points="877,535 877,536" /><polygon fill="white" points="146,530 146,532" /><polygon fill="white" points="878,519 878,521" /><polygon fill="white" points="878,516 878,517" /><polygon fill="white" points="878,510 878,514" /><polygon fill="white" points="878,497 878,498" /><polygon fill="white" points="146,486 146,487" /><polygon fill="white" points="877,480 877,484" /><polygon fill="white" points="147,475 147,476" /><polygon fill="white" points="876,472 876,473" /><polygon fill="white" points="874,455 874,458" /><polygon fill="white" points="150,453 150,454" /><polygon fill="white" points="872,443 872,445" /><polygon fill="white" points="871,440 871,441" /><polygon fill="white" points="866,418 866,420 867,421 866,420" /><polygon fill="white" points="158,416 158,417" /><polygon fill="white" points="865,415 865,416" /><polygon fill="white" points="159,413 159,414" /><polygon fill="white" points="864,412 864,413" /><polygon fill="white" points="163,399 163,400" /><polygon fill="white" points="164,396 164,397" /><polygon fill="white" points="857,391 858,392" /><polygon fill="white" points="850,372 850,373" /><polygon fill="white" points="258,249 259,249" /><polygon fill="white" points="329,197 328,198 327,198 326,199 327,198 328,198" /><polygon fill="white" points="344,189 343,190" /><polygon fill="white" points="360,181 361,181" /><polygon fill="white" points="634,170 635,170" /><polygon fill="white" points="625,167 626,167" /><polygon fill="white" points="396,167 397,167" /><polygon fill="white" points="620,165 621,165 622,166 623,166 622,166 621,165" /><polygon fill="white" points="406,164 407,164" /><polygon fill="white" points="413,162 414,162" /><polygon fill="white" points="416,161 417,161" /><polygon fill="white" points="421,160 422,160" /><polygon fill="white" points="597,159 598,159" /><polygon fill="white" points="424,159 426,159" /><polygon fill="white" points="433,157 434,157" /><polygon fill="white" points="583,156 584,156" /><polygon fill="white" points="442,155 444,155" /><polygon fill="white" points="449,154 450,154" /><polygon fill="white" points="566,153 567,153" /><polygon fill="white" points="455,153 456,153" /><polygon fill="white" points="461,152 464,152" /><polygon fill="white" points="549,151 554,151" /><polygon fill="white" points="497,151 496,152 482,152 481,153 470,153 469,154 463,154 462,155 455,155 454,156 448,156 447,157 443,157 442,158 438,158 437,159 434,159 433,160 429,160 428,161 425,161 424,162 421,162 420,163 417,163 416,164 413,164 412,165 410,165 409,166 406,166 405,167 403,167 402,168 400,168 399,169 397,169 396,170 394,170 393,171 391,171 390,172 388,172 387,173 385,173 384,174 383,174 382,175 380,175 379,176 378,176 377,177 375,177 374,178 373,178 372,179 370,179 369,180 368,180 367,181 366,181 365,182 363,182 362,183 361,183 360,184 359,184 358,185 357,185 356,186 354,186 352,188 351,188 350,189 348,189 347,190 346,190 344,192 343,192 342,193 341,193 340,194 339,194 338,195 337,195 336,196 335,196 334,197 333,197 332,198 331,198 329,200 328,200 327,201 326,201 324,203 323,203 322,204 321,204 319,206 318,206 317,207 316,207 314,209 313,209 311,211 310,211 308,213 307,213 305,215 304,215 302,217 301,217 299,219 298,219 295,222 294,222 291,225 290,225 287,228 286,228 282,232 281,232 277,236 276,236 270,242 269,242 257,254 256,254 255,253 256,254 248,262 247,261 248,262 248,263 237,274 237,275 232,280 232,281 227,286 227,287 223,291 223,292 220,295 220,296 217,299 217,300 214,303 214,304 212,306 212,307 209,310 209,311 207,313 207,314 205,316 205,317 203,319 203,320 202,321 202,322 200,324 200,325 199,326 199,327 197,329 197,330 196,331 196,332 194,334 194,335 193,336 193,337 192,338 192,339 190,341 190,342 189,343 189,344 188,345 188,346 187,347 187,348 186,349 186,350 185,351 185,352 184,353 184,354 183,355 183,356 182,357 182,358 181,359 181,360 180,361 180,363 179,364 179,365 178,366 178,367 177,368 177,369 176,370 176,372 175,373 175,375 174,376 174,377 173,378 173,379 172,380 172,382 171,383 171,385 170,386 170,387 169,388 169,390 168,391 168,393 167,394 167,396 166,397 166,399 165,400 165,402 164,403 164,405 163,406 163,409 162,410 162,412 161,413 161,416 160,417 160,419 159,420 159,423 158,424 158,427 157,428 157,432 156,433 156,436 155,437 155,441 154,442 154,446 153,447 153,452 152,453 152,459 151,460 151,466 150,467 150,474 149,475 149,486 148,487 148,535 149,536 149,547 150,548 150,556 151,557 151,564 152,565 152,570 153,571 153,576 154,577 154,581 155,582 155,586 156,587 156,591 157,592 157,596 158,597 158,600 159,601 159,604 160,605 160,608 161,609 161,612 162,613 162,615 163,616 163,619 164,620 164,622 165,623 165,625 166,626 166,628 167,629 167,631 168,632 168,634 169,635 169,637 170,638 170,640 171,641 171,643 172,644 172,645 173,646 173,648 174,649 174,650 175,651 175,652 176,653 176,655 177,656 177,657 178,658 178,660 179,661 179,662 180,663 180,664 181,665 181,666 182,667 182,668 183,669 183,670 184,671 184,672 185,673 185,674 186,675 186,676 187,677 187,678 188,679 188,680 189,681 189,682 190,683 190,684 191,685 191,686 192,687 192,688 193,689 193,690 195,692 195,693 196,694 196,695 197,696 197,697 199,699 199,700 200,701 200,702 202,704 202,705 204,707 204,708 206,710 206,711 208,713 208,714 210,716 210,717 212,719 212,720 214,722 214,723 217,726 217,727 220,730 220,731 223,734 223,735 227,739 227,740 231,744 231,745 237,751 237,752 249,764 249,765 259,775 260,775 271,786 272,786 278,792 279,792 284,797 285,797 289,801 290,801 293,804 294,804 297,807 298,807 300,809 301,809 304,812 305,812 307,814 308,814 310,816 311,816 313,818 314,818 316,820 317,820 318,821 319,821 321,823 322,823 323,824 324,824 326,826 327,826 328,827 329,827 331,829 332,829 333,830 334,830 335,831 336,831 337,832 338,832 340,834 341,834 342,835 343,835 344,836 345,836 346,837 347,837 348,838 349,838 350,839 351,839 352,840 353,840 354,841 355,841 356,842 357,842 358,843 359,843 360,844 361,844 362,845 363,845 364,846 366,846 367,847 368,847 369,848 370,848 371,849 373,849 374,850 375,850 376,851 378,851 379,852 380,852 381,853 383,853 384,854 385,854 386,855 388,855 389,856 391,856 392,857 394,857 395,858 396,858 397,859 400,859 401,860 403,860 404,861 406,861 407,862 409,862 410,863 413,863 414,864 417,864 418,865 420,865 421,866 424,866 425,867 428,867 429,868 433,868 434,869 437,869 438,870 442,870 443,871 448,871 449,872 453,872 454,873 460,873 461,874 468,874 469,875 478,875 479,876 490,876 491,877 531,877 532,876 543,876 544,875 553,875 554,874 562,874 563,873 568,873 569,872 574,872 575,871 580,871 581,870 585,870 586,869 590,869 591,868 594,868 595,867 598,867 599,866 602,866 603,865 605,865 606,864 609,864 610,863 613,863 614,862 616,862 617,861 619,861 620,860 622,860 623,859 626,859 627,858 629,858 630,857 631,857 632,856 634,856 635,855 637,855 638,854 640,854 641,853 642,853 643,852 645,852 646,851 647,851 648,850 650,850 651,849 652,849 653,848 654,848 655,847 657,847 658,846 659,846 660,845 661,845 662,844 664,844 665,843 666,843 667,842 668,842 669,841 670,841 671,840 672,840 673,839 674,839 675,838 676,838 677,837 678,837 679,836 680,836 681,835 682,835 684,833 685,833 686,832 687,832 688,831 689,831 690,830 691,830 693,828 694,828 695,827 696,827 698,825 699,825 700,824 701,824 703,822 704,822 705,821 706,821 707,822 706,821 708,819 709,819 711,817 712,817 714,815 715,815 717,813 718,813 721,810 722,810 725,807 726,807 728,805 729,805 732,802 733,802 736,799 737,799 742,794 743,794 748,789 749,789 757,781 758,781 781,758 781,757 789,749 789,748 794,743 794,742 798,738 798,737 802,733 802,732 805,729 805,728 807,726 807,725 810,722 810,721 812,719 812,718 814,716 814,715 816,713 816,712 818,710 818,709 820,707 820,706 821,705 821,704 823,702 823,701 824,700 824,699 826,697 826,696 827,695 827,694 829,692 829,691 830,690 830,689 831,688 831,687 832,686 832,685 833,684 833,683 835,681 835,680 836,679 836,678 837,677 837,676 838,675 838,674 839,673 839,672 840,671 840,670 841,669 841,668 842,667 842,665 843,664 843,663 844,662 844,661 845,660 845,659 846,658 846,656 847,655 847,654 848,653 848,651 849,650 849,649 850,648 850,646 851,645 851,644 852,643 852,641 853,640 853,639 854,638 854,636 855,635 855,633 856,632 856,630 857,629 857,627 858,626 858,624 859,623 859,620 860,619 860,617 861,616 861,613 862,612 862,610 863,609 863,606 864,605 864,602 865,601 865,598 866,597 866,594 867,593 867,590 868,589 868,585 869,584 869,580 870,579 870,574 871,573 871,568 872,567 872,561 873,560 873,552 874,551 874,542 875,541 875,527 876,526 876,496 875,495 875,480 874,479 874,470 873,469 873,462 872,461 872,455 871,454 871,450 870,449 870,444 869,443 869,440 868,439 868,435 867,434 867,431 866,430 866,427 865,426 865,423 864,422 864,419 863,418 863,416 862,415 862,412 861,411 861,409 860,408 860,406 859,405 859,403 858,402 858,400 857,399 857,397 856,396 856,394 855,393 855,391 854,390 854,388 853,387 853,385 852,384 852,383 851,382 851,380 850,379 850,378 849,377 849,375 848,374 848,373 847,372 847,371 846,370 846,368 845,367 845,366 844,365 844,364 843,363 843,362 842,361 842,359 840,357 840,355 839,354 839,353 838,352 838,351 837,350 837,349 836,348 836,347 835,346 835,345 834,344 834,343 832,341 832,340 831,339 831,338 830,337 830,336 828,334 828,333 827,332 827,331 826,330 826,329 824,327 824,326 822,324 822,323 821,322 821,321 819,319 819,318 817,316 817,315 815,313 815,312 813,310 813,309 811,307 811,306 808,303 808,302 806,300 806,299 803,296 803,295 800,292 800,291 796,287 796,286 792,282 792,281 786,275 786,274 777,265 777,264 768,255 767,255 754,242 753,242 747,236 746,236 742,232 741,232 737,228 736,228 733,225 732,225 729,222 728,222 726,220 725,220 723,218 722,218 719,215 718,215 716,213 715,213 713,211 712,211 711,210 710,210 708,208 707,208 705,206 704,206 703,205 702,205 700,203 699,203 698,202 697,202 695,200 694,200 693,199 692,199 691,198 690,198 688,196 687,196 686,195 685,195 684,194 683,194 682,193 681,193 680,192 679,192 678,191 677,191 676,190 675,190 674,189 673,189 672,188 671,188 670,187 669,187 668,186 667,186 666,185 665,185 664,184 662,184 661,183 660,183 659,182 658,182 657,181 656,181 655,180 653,180 652,179 651,179 650,178 648,178 647,177 646,177 645,176 643,176 642,175 641,175 640,174 638,174 637,173 635,173 634,172 632,172 631,171 630,171 629,170 627,170 626,169 624,169 623,168 620,168 619,167 617,167 616,166 614,166 613,165 610,165 609,164 607,164 606,163 603,163 602,162 599,162 598,161 594,161 593,160 590,160 589,159 585,159 584,158 580,158 579,157 575,157 574,156 569,156 568,155 562,155 561,154 553,154 552,153 542,153 541,152 526,152 525,151" /><polygon fill="white" points="470,151 473,151" /><polygon fill="white" points="539,150 540,150" /><polygon fill="white" points="482,150 483,150" /><polygon fill="white" points="479,150 480,150" /><polygon fill="white" points="518,149 525,149" /><polygon fill="white" points="513,149 516,149" /><polygon fill="white" points="508,149 510,149" /><polygon fill="white" points="494,149 506,149" /></svg>